<svg xmlns="http://www.w3.org/2000/svg" version="1.1" width="60px" height="50px" style="shape-rendering:geometricPrecision; text-rendering:geometricPrecision; image-rendering:optimizeQuality; fill-rule:evenodd; clip-rule:evenodd" xmlns:xlink="http://www.w3.org/1999/xlink">
<g><path style="opacity:1" fill="#a1bdcd" d="M 50.5,6.5 C 52.924,6.19244 55.2573,6.52577 57.5,7.5C 58.1272,8.41683 58.4606,9.41683 58.5,10.5C 57.1667,10.1667 55.8333,9.83333 54.5,9.5C 52.7354,8.53862 50.7354,8.20528 48.5,8.5C 49.1667,7.83333 49.8333,7.16667 50.5,6.5 Z"/></g>
<g><path style="opacity:1" fill="#9fbcc6" d="M 22.5,6.5 C 29.8333,6.5 37.1667,6.5 44.5,6.5C 43.0813,7.45115 41.4147,7.78448 39.5,7.5C 35.4862,7.33449 31.4862,7.50115 27.5,8C 30.0356,8.18618 32.369,8.68618 34.5,9.5C 31.7938,9.5751 29.1272,9.90843 26.5,10.5C 23.821,10.4754 22.4877,9.14205 22.5,6.5 Z"/></g>
<g><path style="opacity:1" fill="#7d9aa8" d="M 44.5,6.5 C 46.5,6.5 48.5,6.5 50.5,6.5C 49.8333,7.16667 49.1667,7.83333 48.5,8.5C 48.1667,8.5 47.8333,8.5 47.5,8.5C 44.8333,8.5 42.1667,8.5 39.5,8.5C 39.5,8.16667 39.5,7.83333 39.5,7.5C 41.4147,7.78448 43.0813,7.45115 44.5,6.5 Z"/></g>
<g><path style="opacity:1" fill="#90b1bb" d="M 39.5,7.5 C 39.5,7.83333 39.5,8.16667 39.5,8.5C 38.8333,8.5 38.5,8.83333 38.5,9.5C 37.5,9.5 36.5,9.5 35.5,9.5C 35.1667,9.5 34.8333,9.5 34.5,9.5C 32.369,8.68618 30.0356,8.18618 27.5,8C 31.4862,7.50115 35.4862,7.33449 39.5,7.5 Z"/></g>
<g><path style="opacity:1" fill="#8bafb3" d="M 39.5,8.5 C 42.1667,8.5 44.8333,8.5 47.5,8.5C 47.5,8.83333 47.5,9.16667 47.5,9.5C 44.3623,10.6813 41.3623,10.6813 38.5,9.5C 38.5,8.83333 38.8333,8.5 39.5,8.5 Z"/></g>
<g><path style="opacity:1" fill="#04041c" d="M 47.5,9.5 C 47.5,9.16667 47.5,8.83333 47.5,8.5C 47.8333,8.5 48.1667,8.5 48.5,8.5C 50.7354,8.20528 52.7354,8.53862 54.5,9.5C 52.2743,10.7563 49.941,10.7563 47.5,9.5 Z"/></g>
<g><path style="opacity:1" fill="#7b9ca7" d="M 16.5,7.5 C 17.9187,6.54885 19.5853,6.21552 21.5,6.5C 21.7373,7.79105 21.404,8.79105 20.5,9.5C 19.8897,7.14966 19.5563,7.48299 19.5,10.5C 18.1001,9.90018 17.1001,8.90018 16.5,7.5 Z"/></g>
<g><path style="opacity:1" fill="#627688" d="M 12.5,9.5 C 13.3382,9.84171 13.6716,10.5084 13.5,11.5C 9.16667,11.5 4.83333,11.5 0.5,11.5C 0.5,11.1667 0.5,10.8333 0.5,10.5C 4.4517,9.72791 8.4517,9.39458 12.5,9.5 Z"/></g>
<g><path style="opacity:1" fill="#cad6da" d="M 16.5,7.5 C 17.1001,8.90018 18.1001,9.90018 19.5,10.5C 18.791,11.404 17.791,11.7373 16.5,11.5C 15.5,11.5 14.5,11.5 13.5,11.5C 13.6716,10.5084 13.3382,9.84171 12.5,9.5C 13.287,7.89578 14.6203,7.22911 16.5,7.5 Z"/></g>
<g><path style="opacity:1" fill="#e8edf0" d="M 20.5,9.5 C 21.9179,11.3079 23.9179,11.9746 26.5,11.5C 29.5,11.5 32.5,11.5 35.5,11.5C 43.1667,11.5 50.8333,11.5 58.5,11.5C 58.5,11.8333 58.5,12.1667 58.5,12.5C 46.1201,11.8542 34.1201,12.5209 22.5,14.5C 22.5,15.8333 22.5,17.1667 22.5,18.5C 22.5,19.8333 22.5,21.1667 22.5,22.5C 22.1667,22.5 21.8333,22.5 21.5,22.5C 21.665,19.1501 21.4983,15.8168 21,12.5C 20.6667,15.5 20.3333,18.5 20,21.5C 19.5172,20.552 19.3505,19.552 19.5,18.5C 18.8333,10.5 18.1667,10.5 17.5,18.5C 17.7373,19.791 17.404,20.791 16.5,21.5C 16.5,20.8333 16.5,20.1667 16.5,19.5C 16.5,18.5 16.5,17.5 16.5,16.5C 16.5,15.1667 16.5,13.8333 16.5,12.5C 16.5,12.1667 16.5,11.8333 16.5,11.5C 17.791,11.7373 18.791,11.404 19.5,10.5C 19.5563,7.48299 19.8897,7.14966 20.5,9.5 Z"/></g>
<g><path style="opacity:1" fill="#d2dfdf" d="M 21.5,6.5 C 21.8333,6.5 22.1667,6.5 22.5,6.5C 22.4877,9.14205 23.821,10.4754 26.5,10.5C 26.5,10.8333 26.5,11.1667 26.5,11.5C 23.9179,11.9746 21.9179,11.3079 20.5,9.5C 21.404,8.79105 21.7373,7.79105 21.5,6.5 Z"/></g>
<g><path style="opacity:1" fill="#d6dedb" d="M 34.5,9.5 C 34.8333,9.5 35.1667,9.5 35.5,9.5C 35.5,10.1667 35.5,10.8333 35.5,11.5C 32.5,11.5 29.5,11.5 26.5,11.5C 26.5,11.1667 26.5,10.8333 26.5,10.5C 29.1272,9.90843 31.7938,9.5751 34.5,9.5 Z"/></g>
<g><path style="opacity:1" fill="#d0dada" d="M 35.5,9.5 C 36.5,9.5 37.5,9.5 38.5,9.5C 41.3623,10.6813 44.3623,10.6813 47.5,9.5C 49.941,10.7563 52.2743,10.7563 54.5,9.5C 55.8333,9.83333 57.1667,10.1667 58.5,10.5C 58.5,10.8333 58.5,11.1667 58.5,11.5C 50.8333,11.5 43.1667,11.5 35.5,11.5C 35.5,10.8333 35.5,10.1667 35.5,9.5 Z"/></g>
<g><path style="opacity:1" fill="#dce3dc" d="M 0.5,11.5 C 4.83333,11.5 9.16667,11.5 13.5,11.5C 14.5,11.5 15.5,11.5 16.5,11.5C 16.5,11.8333 16.5,12.1667 16.5,12.5C 15.5,12.5 14.5,12.5 13.5,12.5C 10.9407,12.1984 8.60737,12.5318 6.5,13.5C 5.5,13.5 4.5,13.5 3.5,13.5C 2.29049,13.0679 1.29049,12.4013 0.5,11.5 Z"/></g>
<g><path style="opacity:1" fill="#e1e6e1" d="M 6.5,13.5 C 8.60737,12.5318 10.9407,12.1984 13.5,12.5C 13.5,13.1667 13.5,13.8333 13.5,14.5C 11.0504,14.702 8.71702,14.3686 6.5,13.5 Z"/></g>
<g><path style="opacity:1" fill="#536b7f" d="M 13.5,12.5 C 14.5,12.5 15.5,12.5 16.5,12.5C 16.5,13.8333 16.5,15.1667 16.5,16.5C 14.3313,17.0818 11.998,17.0818 9.5,16.5C 10.8333,15.8333 12.1667,15.1667 13.5,14.5C 13.5,13.8333 13.5,13.1667 13.5,12.5 Z"/></g>
<g><path style="opacity:1" fill="#1b273e" d="M 58.5,12.5 C 53.1667,13.1667 47.8333,13.8333 42.5,14.5C 42.1667,14.5 41.8333,14.5 41.5,14.5C 39.1667,14.5 36.8333,14.5 34.5,14.5C 34.1667,14.5 33.8333,14.5 33.5,14.5C 30.8333,14.5 28.1667,14.5 25.5,14.5C 24.5,14.5 23.5,14.5 22.5,14.5C 34.1201,12.5209 46.1201,11.8542 58.5,12.5 Z"/></g>
<g><path style="opacity:1" fill="#252638" d="M -0.5,10.5 C -0.166667,10.5 0.166667,10.5 0.5,10.5C 0.5,10.8333 0.5,11.1667 0.5,11.5C 1.29049,12.4013 2.29049,13.0679 3.5,13.5C 4.5,14.1667 5.5,14.8333 6.5,15.5C 6.16667,16.1667 5.83333,16.8333 5.5,17.5C 3.81324,15.8338 1.81324,14.5005 -0.5,13.5C -0.5,12.5 -0.5,11.5 -0.5,10.5 Z"/></g>
<g><path style="opacity:1" fill="#6e8a9c" d="M 3.5,13.5 C 4.5,13.5 5.5,13.5 6.5,13.5C 8.71702,14.3686 11.0504,14.702 13.5,14.5C 12.1667,15.1667 10.8333,15.8333 9.5,16.5C 8.60895,15.8902 7.60895,15.5569 6.5,15.5C 5.5,14.8333 4.5,14.1667 3.5,13.5 Z"/></g>
<g><path style="opacity:1" fill="#6f8598" d="M 22.5,14.5 C 23.5,14.5 24.5,14.5 25.5,14.5C 26.209,15.404 27.209,15.7373 28.5,15.5C 29.8333,16.8333 31.1667,18.1667 32.5,19.5C 31.8333,19.5 31.1667,19.5 30.5,19.5C 29.5,19.5 28.5,19.5 27.5,19.5C 25.9259,18.0719 24.2592,17.7386 22.5,18.5C 22.5,17.1667 22.5,15.8333 22.5,14.5 Z"/></g>
<g><path style="opacity:1" fill="#607998" d="M 25.5,14.5 C 28.1667,14.5 30.8333,14.5 33.5,14.5C 33.5,15.1667 33.5,15.8333 33.5,16.5C 31.7085,16.634 30.0418,16.3007 28.5,15.5C 27.209,15.7373 26.209,15.404 25.5,14.5 Z"/></g>
<g><path style="opacity:1" fill="#08061d" d="M 6.5,15.5 C 7.60895,15.5569 8.60895,15.8902 9.5,16.5C 11.998,17.0818 14.3313,17.0818 16.5,16.5C 16.5,17.5 16.5,18.5 16.5,19.5C 13.9333,19.1455 11.4333,18.4788 9,17.5C 8.09789,17.7432 7.26456,18.0766 6.5,18.5C 5.83333,18.5 5.5,18.1667 5.5,17.5C 5.83333,16.8333 6.16667,16.1667 6.5,15.5 Z"/></g>
<g><path style="opacity:1" fill="#587589" d="M 19.5,18.5 C 18.8333,18.5 18.1667,18.5 17.5,18.5C 18.1667,10.5 18.8333,10.5 19.5,18.5 Z"/></g>
<g><path style="opacity:1" fill="#65798c" d="M 28.5,15.5 C 30.0418,16.3007 31.7085,16.634 33.5,16.5C 36.3382,18.3059 36.0048,19.3059 32.5,19.5C 31.1667,18.1667 29.8333,16.8333 28.5,15.5 Z"/></g>
<g><path style="opacity:1" fill="#536e83" d="M 33.5,14.5 C 33.8333,14.5 34.1667,14.5 34.5,14.5C 35.5935,17.2606 37.5935,18.9272 40.5,19.5C 40.3284,20.4916 40.6618,21.1583 41.5,21.5C 41.1583,22.3382 40.4916,22.6716 39.5,22.5C 38.1225,21.7656 36.6225,21.0989 35,20.5C 34.6012,20.7284 34.4346,21.0618 34.5,21.5C 32.6203,21.7709 31.287,21.1042 30.5,19.5C 31.1667,19.5 31.8333,19.5 32.5,19.5C 36.0048,19.3059 36.3382,18.3059 33.5,16.5C 33.5,15.8333 33.5,15.1667 33.5,14.5 Z"/></g>
<g><path style="opacity:1" fill="#2b4668" d="M 34.5,14.5 C 36.8333,14.5 39.1667,14.5 41.5,14.5C 42.3984,15.1577 43.3984,15.8243 44.5,16.5C 43.0986,17.5207 41.7653,18.5207 40.5,19.5C 37.5935,18.9272 35.5935,17.2606 34.5,14.5 Z"/></g>
<g><path style="opacity:1" fill="#3e577c" d="M 46.5,14.5 C 50.5,14.5 54.5,14.5 58.5,14.5C 58.5,15.5 58.5,16.5 58.5,17.5C 54.9581,17.1872 51.6248,17.5206 48.5,18.5C 47.5,18.5 46.5,18.5 45.5,18.5C 45.8333,17.1667 46.1667,15.8333 46.5,14.5 Z"/></g>
<g><path style="opacity:1" fill="#454054" d="M 16.5,19.5 C 16.5,20.1667 16.5,20.8333 16.5,21.5C 12.8835,21.1007 9.55021,20.1007 6.5,18.5C 7.26456,18.0766 8.09789,17.7432 9,17.5C 11.4333,18.4788 13.9333,19.1455 16.5,19.5 Z"/></g>
<g><path style="opacity:1" fill="#233956" d="M 41.5,14.5 C 41.8333,14.5 42.1667,14.5 42.5,14.5C 43.8333,14.5 45.1667,14.5 46.5,14.5C 46.1667,15.8333 45.8333,17.1667 45.5,18.5C 45.19,19.7383 44.69,19.7383 44,18.5C 42.9614,19.2438 42.4614,20.2438 42.5,21.5C 42.1667,21.5 41.8333,21.5 41.5,21.5C 40.6618,21.1583 40.3284,20.4916 40.5,19.5C 41.7653,18.5207 43.0986,17.5207 44.5,16.5C 43.3984,15.8243 42.3984,15.1577 41.5,14.5 Z"/></g>
<g><path style="opacity:0.988" fill="#0a081b" d="M 58.5,10.5 C 58.8333,10.5 59.1667,10.5 59.5,10.5C 59.5,13.1667 59.5,15.8333 59.5,18.5C 56.5,18.5 53.5,18.5 50.5,18.5C 49.8333,18.5 49.1667,18.5 48.5,18.5C 51.6248,17.5206 54.9581,17.1872 58.5,17.5C 58.5,16.5 58.5,15.5 58.5,14.5C 54.5,14.5 50.5,14.5 46.5,14.5C 45.1667,14.5 43.8333,14.5 42.5,14.5C 47.8333,13.8333 53.1667,13.1667 58.5,12.5C 58.5,12.1667 58.5,11.8333 58.5,11.5C 58.5,11.1667 58.5,10.8333 58.5,10.5 Z"/></g>
<g><path style="opacity:1" fill="#565157" d="M 45.5,18.5 C 46.5,18.5 47.5,18.5 48.5,18.5C 49.1667,18.5 49.8333,18.5 50.5,18.5C 47.9188,19.4885 45.2521,20.4885 42.5,21.5C 42.4614,20.2438 42.9614,19.2438 44,18.5C 44.69,19.7383 45.19,19.7383 45.5,18.5 Z"/></g>
<g><path style="opacity:1" fill="#383b48" d="M 21.5,22.5 C 19.2736,24.18 17.6069,23.8466 16.5,21.5C 17.404,20.791 17.7373,19.791 17.5,18.5C 18.1667,18.5 18.8333,18.5 19.5,18.5C 19.3505,19.552 19.5172,20.552 20,21.5C 20.3333,18.5 20.6667,15.5 21,12.5C 21.4983,15.8168 21.665,19.1501 21.5,22.5 Z"/></g>
<g><path style="opacity:1" fill="#7796a1" d="M 27.5,19.5 C 26.9326,20.4202 27.5992,20.7535 29.5,20.5C 29.5,21.5 29.5,22.5 29.5,23.5C 28.1266,23.3433 26.7932,23.51 25.5,24C 26.3081,24.3076 26.9747,24.8076 27.5,25.5C 27.1543,26.6956 26.6543,26.6956 26,25.5C 25.5357,26.0944 25.369,26.7611 25.5,27.5C 25.5,28.8333 25.5,30.1667 25.5,31.5C 25.1667,31.5 24.8333,31.5 24.5,31.5C 24.5,30.8333 24.5,30.1667 24.5,29.5C 24.6621,27.4727 24.4955,25.4727 24,23.5C 23.6174,22.944 23.1174,22.6107 22.5,22.5C 22.5,21.1667 22.5,19.8333 22.5,18.5C 24.2592,17.7386 25.9259,18.0719 27.5,19.5 Z"/></g>
<g><path style="opacity:1" fill="#597d8b" d="M 27.5,19.5 C 28.5,19.5 29.5,19.5 30.5,19.5C 31.287,21.1042 32.6203,21.7709 34.5,21.5C 34.5,22.1667 34.5,22.8333 34.5,23.5C 33.0267,24.0715 31.36,24.0715 29.5,23.5C 29.5,22.5 29.5,21.5 29.5,20.5C 27.5992,20.7535 26.9326,20.4202 27.5,19.5 Z"/></g>
<g><path style="opacity:1" fill="#394851" d="M 39.5,22.5 C 38.7095,23.4013 37.7095,24.0679 36.5,24.5C 36.5,23.8333 36.1667,23.5 35.5,23.5C 35.1667,23.5 34.8333,23.5 34.5,23.5C 34.5,22.8333 34.5,22.1667 34.5,21.5C 34.4346,21.0618 34.6012,20.7284 35,20.5C 36.6225,21.0989 38.1225,21.7656 39.5,22.5 Z"/></g>
<g><path style="opacity:1" fill="#284d59" d="M 29.5,23.5 C 29.6107,24.1174 29.944,24.6174 30.5,25C 29.244,25.4169 28.5774,26.2502 28.5,27.5C 27.5,27.5 26.5,27.5 25.5,27.5C 25.369,26.7611 25.5357,26.0944 26,25.5C 26.6543,26.6956 27.1543,26.6956 27.5,25.5C 26.9747,24.8076 26.3081,24.3076 25.5,24C 26.7932,23.51 28.1266,23.3433 29.5,23.5 Z"/></g>
<g><path style="opacity:1" fill="#3a576e" d="M 29.5,23.5 C 31.36,24.0715 33.0267,24.0715 34.5,23.5C 34.8333,23.5 35.1667,23.5 35.5,23.5C 35.5674,24.9587 35.2341,26.2921 34.5,27.5C 34.5,27.8333 34.5,28.1667 34.5,28.5C 32.8828,27.962 31.2161,27.6287 29.5,27.5C 29.1667,27.5 28.8333,27.5 28.5,27.5C 28.5774,26.2502 29.244,25.4169 30.5,25C 29.944,24.6174 29.6107,24.1174 29.5,23.5 Z"/></g>
<g><path style="opacity:1" fill="#0f1831" d="M 21.5,22.5 C 21.8333,22.5 22.1667,22.5 22.5,22.5C 23.1174,22.6107 23.6174,22.944 24,23.5C 24.4955,25.4727 24.6621,27.4727 24.5,29.5C 22.6161,30.3387 21.2828,31.672 20.5,33.5C 20.2934,30.3657 18.9601,29.3657 16.5,30.5C 15.6618,30.1583 15.3284,29.4916 15.5,28.5C 18.9079,29.172 21.5745,28.172 23.5,25.5C 22.8075,24.4822 22.1408,23.4822 21.5,22.5 Z"/></g>
<g><path style="opacity:1" fill="#1f3b5c" d="M 25.5,27.5 C 26.5,27.5 27.5,27.5 28.5,27.5C 28.8333,27.5 29.1667,27.5 29.5,27.5C 30.8333,28.8333 30.8333,30.1667 29.5,31.5C 28.7611,31.369 28.0944,31.5357 27.5,32C 28.2524,32.6708 28.5858,33.5041 28.5,34.5C 27.5,33.8333 26.5,33.1667 25.5,32.5C 25.5,32.1667 25.5,31.8333 25.5,31.5C 25.5,30.1667 25.5,28.8333 25.5,27.5 Z"/></g>
<g><path style="opacity:1" fill="#23243a" d="M 35.5,23.5 C 36.1667,23.5 36.5,23.8333 36.5,24.5C 37.2899,25.7942 38.2899,26.9609 39.5,28C 42.0158,28.0909 43.6824,28.5909 44.5,29.5C 41.3915,29.7359 38.3915,29.4025 35.5,28.5C 35.5,27.8333 35.1667,27.5 34.5,27.5C 35.2341,26.2921 35.5674,24.9587 35.5,23.5 Z"/></g>
<g><path style="opacity:1" fill="#446d88" d="M 16.5,30.5 C 18.9601,29.3657 20.2934,30.3657 20.5,33.5C 19.3634,32.2112 18.0301,31.2112 16.5,30.5 Z"/></g>
<g><path style="opacity:1" fill="#0b0d28" d="M 35.5,28.5 C 38.3915,29.4025 41.3915,29.7359 44.5,29.5C 44.5,30.1667 44.5,30.8333 44.5,31.5C 42.5168,31.1568 41.1834,31.8235 40.5,33.5C 39.5,33.5 38.5,33.5 37.5,33.5C 36.0687,32.2196 35.4021,30.5529 35.5,28.5 Z"/></g>
<g><path style="opacity:1" fill="#607b91" d="M 29.5,27.5 C 31.2161,27.6287 32.8828,27.962 34.5,28.5C 34.5,28.8333 34.5,29.1667 34.5,29.5C 33.5,29.5 32.5,29.5 31.5,29.5C 31.4679,32.0758 32.1346,34.4091 33.5,36.5C 30.676,36.0107 29.3426,34.344 29.5,31.5C 30.8333,30.1667 30.8333,28.8333 29.5,27.5 Z"/></g>
<g><path style="opacity:1" fill="#a5bac0" d="M 34.5,29.5 C 34.1706,32.2282 34.8372,34.5615 36.5,36.5C 36.5,36.8333 36.5,37.1667 36.5,37.5C 35.5,37.5 34.5,37.5 33.5,37.5C 33.5,37.1667 33.5,36.8333 33.5,36.5C 32.1346,34.4091 31.4679,32.0758 31.5,29.5C 32.5,29.5 33.5,29.5 34.5,29.5 Z"/></g>
<g><path style="opacity:1" fill="#0a1129" d="M 16.5,30.5 C 18.0301,31.2112 19.3634,32.2112 20.5,33.5C 20.1667,34.1667 19.8333,34.8333 19.5,35.5C 19.1667,35.5 18.8333,35.5 18.5,35.5C 17.6016,34.8423 16.6016,34.1757 15.5,33.5C 16.1272,32.5832 16.4606,31.5832 16.5,30.5 Z"/></g>
<g><path style="opacity:1" fill="#476a84" d="M 24.5,29.5 C 24.5,30.1667 24.5,30.8333 24.5,31.5C 23.5275,33.1392 22.1942,34.4726 20.5,35.5C 20.1667,35.5 19.8333,35.5 19.5,35.5C 19.8333,34.8333 20.1667,34.1667 20.5,33.5C 21.2828,31.672 22.6161,30.3387 24.5,29.5 Z"/></g>
<g><path style="opacity:1" fill="#04041d" d="M 44.5,31.5 C 44.7148,33.1788 44.0481,34.1788 42.5,34.5C 41.8333,34.1667 41.1667,33.8333 40.5,33.5C 41.1834,31.8235 42.5168,31.1568 44.5,31.5 Z"/></g>
<g><path style="opacity:1" fill="#4f4851" d="M 15.5,28.5 C 15.3284,29.4916 15.6618,30.1583 16.5,30.5C 16.4606,31.5832 16.1272,32.5832 15.5,33.5C 16.6016,34.1757 17.6016,34.8423 18.5,35.5C 18.5,36.1667 18.1667,36.5 17.5,36.5C 16.4324,35.5655 15.099,35.2322 13.5,35.5C 13.4095,32.8478 14.0762,30.5145 15.5,28.5 Z"/></g>
<g><path style="opacity:1" fill="#eeeee7" d="M 34.5,27.5 C 35.1667,27.5 35.5,27.8333 35.5,28.5C 35.4021,30.5529 36.0687,32.2196 37.5,33.5C 37.8333,34.1667 38.1667,34.8333 38.5,35.5C 37.8333,35.8333 37.1667,36.1667 36.5,36.5C 34.8372,34.5615 34.1706,32.2282 34.5,29.5C 34.5,29.1667 34.5,28.8333 34.5,28.5C 34.5,28.1667 34.5,27.8333 34.5,27.5 Z"/></g>
<g><path style="opacity:1" fill="#23293a" d="M 37.5,33.5 C 38.5,33.5 39.5,33.5 40.5,33.5C 41.1667,33.8333 41.8333,34.1667 42.5,34.5C 42.5,35.1667 42.5,35.8333 42.5,36.5C 41.8333,36.8333 41.1667,37.1667 40.5,37.5C 40.1667,36.5 39.5,35.8333 38.5,35.5C 38.1667,34.8333 37.8333,34.1667 37.5,33.5 Z"/></g>
<g><path style="opacity:1" fill="#3a4f68" d="M 24.5,31.5 C 24.8333,31.5 25.1667,31.5 25.5,31.5C 25.5,31.8333 25.5,32.1667 25.5,32.5C 26.9617,35.642 26.295,37.642 23.5,38.5C 23.1667,38.5 22.8333,38.5 22.5,38.5C 23.4552,36.2543 24.1218,33.921 24.5,31.5 Z"/></g>
<g><path style="opacity:1" fill="#dee4df" d="M 38.5,35.5 C 39.5,35.8333 40.1667,36.5 40.5,37.5C 39.1667,38.5 39.1667,39.5 40.5,40.5C 40.1667,40.5 39.8333,40.5 39.5,40.5C 38.8333,40.1667 38.1667,39.8333 37.5,39.5C 37.1667,38.8333 36.8333,38.1667 36.5,37.5C 36.5,37.1667 36.5,36.8333 36.5,36.5C 37.1667,36.1667 37.8333,35.8333 38.5,35.5 Z"/></g>
<g><path style="opacity:1" fill="#eaebe3" d="M 24.5,31.5 C 24.1218,33.921 23.4552,36.2543 22.5,38.5C 21.5,38.8333 20.8333,39.5 20.5,40.5C 20.1667,40.5 19.8333,40.5 19.5,40.5C 18.7769,38.8361 19.1103,37.1694 20.5,35.5C 22.1942,34.4726 23.5275,33.1392 24.5,31.5 Z"/></g>
<g><path style="opacity:1" fill="#331f30" d="M 17.5,36.5 C 17.0269,37.9063 16.0269,38.573 14.5,38.5C 14.9731,37.0937 15.9731,36.427 17.5,36.5 Z"/></g>
<g><path style="opacity:1" fill="#060823" d="M 25.5,32.5 C 26.5,33.1667 27.5,33.8333 28.5,34.5C 30.0808,36.1417 30.7475,38.1417 30.5,40.5C 27.8478,40.5905 25.5145,39.9238 23.5,38.5C 26.295,37.642 26.9617,35.642 25.5,32.5 Z"/></g>
<g><path style="opacity:1" fill="#34485e" d="M 29.5,31.5 C 29.3426,34.344 30.676,36.0107 33.5,36.5C 33.5,36.8333 33.5,37.1667 33.5,37.5C 32.8902,38.391 32.5569,39.391 32.5,40.5C 31.8333,40.5 31.1667,40.5 30.5,40.5C 30.7475,38.1417 30.0808,36.1417 28.5,34.5C 28.5858,33.5041 28.2524,32.6708 27.5,32C 28.0944,31.5357 28.7611,31.369 29.5,31.5 Z"/></g>
<g><path style="opacity:1" fill="#bdd4d7" d="M 18.5,35.5 C 18.8333,35.5 19.1667,35.5 19.5,35.5C 19.8333,35.5 20.1667,35.5 20.5,35.5C 19.1103,37.1694 18.7769,38.8361 19.5,40.5C 17.8333,40.5 16.1667,40.5 14.5,40.5C 14.5,39.8333 14.5,39.1667 14.5,38.5C 16.0269,38.573 17.0269,37.9063 17.5,36.5C 18.1667,36.5 18.5,36.1667 18.5,35.5 Z"/></g>
<g><path style="opacity:1" fill="#5c6e7c" d="M 33.5,37.5 C 34.5,37.5 35.5,37.5 36.5,37.5C 36.8333,38.1667 37.1667,38.8333 37.5,39.5C 37.1667,40.8333 36.8333,42.1667 36.5,43.5C 32.9359,42.5773 29.2693,42.244 25.5,42.5C 25.5,42.1667 25.5,41.8333 25.5,41.5C 29.3618,41.9337 31.6951,41.6004 32.5,40.5C 32.5569,39.391 32.8902,38.391 33.5,37.5 Z"/></g>
<g><path style="opacity:1" fill="#abc2c9" d="M 42.5,36.5 C 44.4044,36.7376 45.7377,37.7376 46.5,39.5C 45.8333,39.5 45.5,39.8333 45.5,40.5C 43.7659,39.438 42.0992,39.438 40.5,40.5C 39.1667,39.5 39.1667,38.5 40.5,37.5C 41.1667,37.1667 41.8333,36.8333 42.5,36.5 Z"/></g>
<g><path style="opacity:1" fill="#0a041a" d="M 22.5,38.5 C 22.8333,38.5 23.1667,38.5 23.5,38.5C 25.5145,39.9238 27.8478,40.5905 30.5,40.5C 31.1667,40.5 31.8333,40.5 32.5,40.5C 31.6951,41.6004 29.3618,41.9337 25.5,41.5C 23.7162,41.8925 22.0495,42.5592 20.5,43.5C 20.5,42.5 20.5,41.5 20.5,40.5C 20.8333,39.5 21.5,38.8333 22.5,38.5 Z"/></g>
<g><path style="opacity:1" fill="#070724" d="M 45.5,40.5 C 45.719,41.675 45.3857,42.675 44.5,43.5C 43.135,42.1931 41.8016,42.1931 40.5,43.5C 39.8902,42.609 39.5569,41.609 39.5,40.5C 39.8333,40.5 40.1667,40.5 40.5,40.5C 42.0992,39.438 43.7659,39.438 45.5,40.5 Z"/></g>
<g><path style="opacity:1" fill="#2a4361" d="M 14.5,40.5 C 16.1667,40.5 17.8333,40.5 19.5,40.5C 19.8333,40.5 20.1667,40.5 20.5,40.5C 20.5,41.5 20.5,42.5 20.5,43.5C 18.5,43.5 16.5,43.5 14.5,43.5C 14.5,42.5 14.5,41.5 14.5,40.5 Z"/></g>
<g><path style="opacity:1" fill="#2e3149" d="M 37.5,39.5 C 38.1667,39.8333 38.8333,40.1667 39.5,40.5C 39.5569,41.609 39.8902,42.609 40.5,43.5C 39.8333,43.5 39.5,43.8333 39.5,44.5C 38.391,44.4431 37.391,44.1098 36.5,43.5C 36.8333,42.1667 37.1667,40.8333 37.5,39.5 Z"/></g>
<g><path style="opacity:0.994" fill="#242130" d="M 14.5,38.5 C 14.5,39.1667 14.5,39.8333 14.5,40.5C 14.5,41.5 14.5,42.5 14.5,43.5C 16.5,43.5 18.5,43.5 20.5,43.5C 22.0495,42.5592 23.7162,41.8925 25.5,41.5C 25.5,41.8333 25.5,42.1667 25.5,42.5C 21.7424,44.2541 17.7424,44.9208 13.5,44.5C 13.2053,42.2646 13.5386,40.2646 14.5,38.5 Z"/></g>
<g><path style="opacity:0.988" fill="#0b0718" d="M 46.5,39.5 C 46.5,41.1667 46.5,42.8333 46.5,44.5C 44.1667,44.5 41.8333,44.5 39.5,44.5C 39.5,43.8333 39.8333,43.5 40.5,43.5C 41.8016,42.1931 43.135,42.1931 44.5,43.5C 45.3857,42.675 45.719,41.675 45.5,40.5C 45.5,39.8333 45.8333,39.5 46.5,39.5 Z"/></g>
</svg>
